<svg width="75" height="81" viewBox="0 0 75 81" fill="none" xmlns="http://www.w3.org/2000/svg">
<path d="M56.6134 73.4795H47.1657V60.7509H13.9535V73.4795H4.50581V47.5522C4.50581 43.7674 5.15988 40.2839 6.46802 37.1018C7.77616 33.9196 9.59302 31.1835 11.9186 28.8933C14.2442 26.6031 16.9937 24.8192 20.1672 23.5415C23.3406 22.2639 26.8048 21.625 30.5596 21.625H51.8532C52.5073 21.625 53.125 21.7455 53.7064 21.9866C54.2878 22.2277 54.7965 22.5652 55.2326 22.9991C55.6686 23.433 56.0077 23.9393 56.25 24.5179C56.4923 25.0964 56.6134 25.7112 56.6134 26.3621V73.4795ZM13.9535 51.3491H47.1657V31.0268H30.5596C30.2689 31.0268 29.6512 31.075 28.7064 31.1714C27.7859 31.2438 26.7078 31.4487 25.4724 31.7862C24.2612 32.1236 22.9772 32.642 21.6206 33.3411C20.2641 34.0402 19.0165 35.0045 17.8779 36.2339C16.7394 37.4634 15.7946 39.0063 15.0436 40.8625C14.3169 42.6947 13.9535 44.9245 13.9535 47.5522V51.3491Z" fill="white"/>
<path d="M66.3314 62.5698C67.0006 62.5698 67.6163 62.6866 68.1785 62.9204C68.7407 63.1495 69.2262 63.4671 69.6349 63.8739C70.0384 64.2806 70.3552 64.7637 70.5855 65.3232C70.8151 65.8827 70.9302 66.4902 70.9302 67.1463V72.5009C70.9302 72.6433 70.9047 72.7752 70.8535 72.8973C70.8023 73.0193 70.7337 73.1264 70.6465 73.2178C70.5547 73.304 70.4471 73.3729 70.3244 73.4238C70.2023 73.4747 70.0692 73.5001 69.9262 73.5001H60.943C60.8047 73.5001 60.6744 73.4747 60.5518 73.4238C60.4291 73.3729 60.3221 73.304 60.2302 73.2178C60.1384 73.1264 60.0663 73.0193 60.0157 72.8973C59.9645 72.7752 59.939 72.6433 59.939 72.5009V67.1463C59.939 66.4902 60.0535 65.8827 60.2837 65.3232C60.5134 64.7637 60.8331 64.2806 61.2419 63.8739C61.6454 63.4671 62.1308 63.1495 62.6983 62.9204C63.2605 62.6866 63.8733 62.5698 64.5378 62.5698H66.3314ZM64.5378 64.5525C64.1494 64.5525 63.7942 64.6162 63.4721 64.7435C63.1506 64.8655 62.8768 65.0408 62.6523 65.27C62.4221 65.4985 62.2459 65.7733 62.1233 66.0933C61.9954 66.4086 61.9314 66.7598 61.9314 67.1463V71.5168H68.9372V67.1463C68.9372 66.7598 68.8762 66.4086 68.7535 66.0933C68.6256 65.7733 68.4494 65.4985 68.2244 65.27C67.9948 65.0408 67.7209 64.8655 67.4047 64.7435C67.0826 64.6162 66.725 64.5525 66.3314 64.5525H64.5378ZM66.4384 51.9439V58.2062H64.4302V51.9439H66.4384ZM70.9302 51.0515V58.2062C70.9302 58.481 70.882 58.7807 70.7849 59.1064C70.6878 59.4316 70.5291 59.7342 70.3093 60.0142C70.0843 60.2885 69.7959 60.5199 69.443 60.7079C69.0855 60.8913 68.6489 60.9827 68.1326 60.9827H60.943C60.8047 60.9827 60.6744 60.9573 60.5518 60.9064C60.4291 60.8555 60.3221 60.7866 60.2302 60.7004C60.1384 60.609 60.0663 60.502 60.0157 60.3799C59.9645 60.2578 59.939 60.1259 59.939 59.9836V51.0515H61.9314V58.9994H68.1326C68.393 58.9994 68.5925 58.9306 68.7302 58.7934C68.8686 58.6563 68.9372 58.4555 68.9372 58.1911V51.0515H70.9302ZM67.6959 38.9766C68.089 38.9766 68.4442 39.0274 68.7611 39.1291C69.0727 39.2257 69.3488 39.3554 69.589 39.5181C69.8291 39.6808 70.0337 39.8715 70.2023 40.0902C70.3709 40.3089 70.5087 40.5352 70.6157 40.7691C70.7233 41.003 70.8023 41.242 70.8535 41.486C70.9047 41.7251 70.9302 41.9513 70.9302 42.1649V49.8155H68.9372V42.1649C68.9372 41.7836 68.825 41.4886 68.6 41.2801C68.375 41.0666 68.0738 40.9598 67.6959 40.9598C67.5116 40.9598 67.343 40.9877 67.1895 41.0437C67.0366 41.0996 66.9035 41.181 66.7913 41.2878C66.6791 41.3895 66.5919 41.5166 66.5308 41.6692C66.4692 41.8166 66.4384 41.9819 66.4384 42.1649V46.7263C66.4384 47.0466 66.3826 47.3924 66.2698 47.7636C66.1523 48.1348 65.9657 48.4806 65.7105 48.801C65.4552 49.1162 65.1204 49.3807 64.7064 49.5943C64.2925 49.8028 63.7866 49.907 63.189 49.907C62.5907 49.907 62.0878 49.8028 61.6785 49.5943C61.2645 49.3807 60.9302 49.1162 60.6744 48.801C60.414 48.4806 60.2273 48.1348 60.1151 47.7636C59.9977 47.3924 59.939 47.0466 59.939 46.7263V39.9758H61.9314V46.7263C61.9314 47.1026 62.0465 47.3975 62.2768 47.6111C62.5064 47.8196 62.8105 47.9238 63.189 47.9238C63.5721 47.9238 63.8762 47.8196 64.1006 47.6111C64.3204 47.3975 64.4302 47.1026 64.4302 46.7263V42.1649V42.1497C64.4355 41.9361 64.4663 41.7098 64.5227 41.4708C64.5733 41.2318 64.6552 40.9954 64.7675 40.7614C64.8802 40.5224 65.0233 40.2962 65.1971 40.0826C65.3657 39.869 65.5698 39.6808 65.8099 39.5181C66.05 39.3503 66.3262 39.2181 66.6378 39.1215C66.9494 39.0249 67.3023 38.9766 67.6959 38.9766ZM70.9302 26.9093V28.8925H68.232V35.8642H70.9302V37.8474H65.4343C64.632 37.8474 63.8936 37.7101 63.2192 37.4355C62.5448 37.1609 61.9651 36.7795 61.4797 36.2913C60.9942 35.8031 60.6157 35.226 60.3448 34.5599C60.0744 33.8937 59.939 33.1665 59.939 32.3783V27.9085C59.939 27.7712 59.9645 27.6416 60.0157 27.5196C60.0663 27.3975 60.1384 27.2907 60.2302 27.1992C60.3221 27.1076 60.4291 27.0365 60.5518 26.9856C60.6744 26.9347 60.8047 26.9093 60.943 26.9093H70.9302ZM66.2395 35.8642V28.8925H61.9314V32.3783C61.9314 32.4394 61.9419 32.569 61.9622 32.7674C61.9779 32.9606 62.0209 33.1869 62.0925 33.4462C62.164 33.7005 62.2738 33.97 62.4221 34.2548C62.5704 34.5395 62.775 34.8014 63.0355 35.0404C63.2959 35.2794 63.6233 35.4777 64.0163 35.6354C64.4047 35.7879 64.8773 35.8642 65.4343 35.8642H66.2395ZM70.9302 22.9121V24.8953H59.939V22.9121H70.9302Z" fill="white"/>
</svg>
