<svg width="570" height="396" viewBox="0 0 570 396" fill="none" xmlns="http://www.w3.org/2000/svg">
<path d="M2.10555 51.9227V83.0714L43.9519 100.034V66.6892L82.9258 50.891V83.6523L124.053 66.9807L163.746 83.0704V113.636C162.538 113.86 161.645 114.625 161.645 115.543C161.645 115.723 161.689 115.894 161.754 116.06L123.695 131.487L123.336 131.632V165.559L164.461 148.886L204.874 165.268L245.284 148.887L284.976 164.977V197.155L243.848 213.828L284.976 230.501V263.847L326.464 247.028L326.823 246.883V214.701L363.804 229.693C363.741 229.858 363.695 230.03 363.695 230.209C363.695 231.127 364.589 231.892 365.797 232.116V295.443L325.745 311.679L325.386 311.823V345.751L366.874 328.933L367.233 328.787V296.022L406.923 279.931L445.902 295.733L406.564 311.68L406.205 311.824V345.752L447.692 328.934L448.052 328.788V263.843L485.033 278.834C484.97 279 484.924 279.17 484.924 279.35C484.924 280.268 485.818 281.034 487.025 281.257V312.405L526.717 328.495L487.744 344.293L487.025 344.002V344.585L486.307 344.876L487.025 345.166V377.931L525.443 393.504C525.38 393.669 525.334 393.841 525.334 394.02C525.334 395.114 526.597 396 528.154 396C529.711 396 530.973 395.114 530.973 394.02C530.973 393.103 530.078 392.337 528.872 392.113V361.549L570 344.875L529.59 328.494L568.923 312.548L569.282 312.403V279.64L570 279.349L569.282 279.057V246.293L529.606 230.209L568.954 214.259L569.313 214.114V180.188L527.825 197.006L527.466 197.151V229.343L527.436 229.331V262.676L489.744 277.956C489.397 277.71 488.954 277.533 488.462 277.443V246.297L448.77 230.208L488.103 214.264L488.462 214.118V181.342L526.12 166.076C526.631 166.438 527.339 166.663 528.122 166.663C529.679 166.663 530.941 165.777 530.941 164.684C530.941 163.766 530.047 163.001 528.84 162.777V99.4868L568.956 83.2237L569.315 83.0785V49.1514L569.25 49.1777V16.971L528.84 0.590894V0.00804082L528.121 0.299492L527.404 0.00909872V0.589884L487.353 16.8258L486.994 16.971V50.898L526.121 35.0363C526.631 35.3983 527.339 35.6232 528.122 35.6232C528.905 35.6232 529.613 35.3983 530.124 35.0363L567.129 50.0389L528.84 65.5597V65.5275L487.713 82.199L446.585 65.5275V98.8828L406.566 115.106L406.207 115.25V146.395C405 146.619 404.105 147.385 404.105 148.302C404.105 149.396 405.368 150.282 406.925 150.282C408.482 150.282 409.744 149.396 409.744 148.302C409.744 148.123 409.7 147.952 409.635 147.786L447.694 132.358L448.053 132.213V100.046L486.995 115.832V180.787L447.335 196.864L406.207 180.192V213.538L368.515 228.816C368.168 228.57 367.725 228.395 367.233 228.303V197.155L328.815 181.582C328.878 181.417 328.924 181.245 328.924 181.066C328.924 180.886 328.879 180.716 328.815 180.55L366.874 165.121L367.233 164.976V99.4888L404.696 84.3007C405.207 84.8039 406.041 85.1337 406.988 85.1337C408.545 85.1337 409.807 84.2472 409.807 83.1541C409.807 82.2364 408.913 81.471 407.706 81.2472V49.1524L367.296 65.5345V33.3532L325.45 16.3902V50.3182L365.101 66.3917L326.105 82.2001L288.403 66.9182C288.466 66.7528 288.512 66.5813 288.512 66.4018C288.512 65.3087 287.25 64.4223 285.693 64.4223C284.135 64.4223 282.874 65.3087 282.874 66.4018C282.874 67.3195 283.768 68.0839 284.975 68.3088V131.632L245.283 147.723L206.309 131.922L245.642 115.977L246.001 115.833V83.0694L246.719 82.7779L246.001 82.4865V50.3051L286.052 34.0702L286.411 33.926V1.04211e-05L244.924 16.8178L244.565 16.9629V49.1413L205.591 33.3431V32.7612L204.873 33.0527L163.745 16.3801V48.1098C163.252 48.2015 162.808 48.377 162.459 48.6241L124.769 33.3461V0.0101085L84.3591 16.3912V16.3842L42.8719 33.2019L42.5128 33.3471V65.5266L5.52958 50.535C5.59421 50.3686 5.6387 50.1983 5.6387 50.0177C5.6387 48.9246 4.37621 48.0381 2.81932 48.0381C1.26243 48.0381 -6.48743e-06 48.9246 -6.48743e-06 50.0177C0.00430224 50.9344 0.897669 51.6988 2.10555 51.9227ZM446.615 328.205L407.641 344.005V312.407L446.615 296.608V328.205ZM528.903 197.736L567.879 181.938V213.534L528.903 229.332V197.736ZM488.43 49.1534V17.556L527.404 1.75665V31.7387C526.197 31.9626 525.303 32.7269 525.303 33.6456C525.303 33.8251 525.349 33.9965 525.412 34.1619L488.43 49.1534ZM528.84 31.7387V1.75771L567.814 17.556V49.1524L530.834 34.161C530.897 33.9956 530.943 33.8251 530.943 33.6456C530.941 32.7269 530.047 31.9626 528.84 31.7387ZM84.3606 50.3172L123.334 34.5179V66.1084L84.3606 81.9066V50.3172ZM165.182 51.9227C165.675 51.8309 166.117 51.6554 166.465 51.4094L203.437 66.3979L165.182 81.9056V51.9227ZM204.156 99.4525V131.05L167.174 116.059C167.237 115.893 167.283 115.723 167.283 115.543C167.283 114.626 166.39 113.861 165.184 113.637V83.6533L204.156 99.4525ZM165.182 117.449C165.675 117.357 166.117 117.182 166.466 116.935L203.438 131.922L165.182 147.431V117.449ZM204.874 98.5782L165.9 82.779L183.605 75.6019L204.873 66.9807L243.847 82.78L226.142 89.957L204.874 98.5782ZM204.156 65.5245L167.174 50.532C167.237 50.3666 167.283 50.1962 167.283 50.0167C167.283 49.8372 167.239 49.6657 167.174 49.5003L204.156 34.5089V65.5245ZM124.771 132.215L162.462 116.937C162.81 117.183 163.253 117.358 163.746 117.45V148.012L124.771 163.811V132.215ZM325.386 182.972V212.956L286.411 197.156V165.559L323.393 180.55C323.33 180.716 323.284 180.886 323.284 181.066C323.284 181.982 324.179 182.748 325.386 182.972ZM325.386 179.158C324.894 179.25 324.45 179.425 324.102 179.671L287.132 164.685L325.386 149.179V179.158ZM285.693 198.03L324.668 213.829L305.553 221.578L285.694 229.628L246.721 213.829L285.693 198.03ZM325.386 246.3L286.411 262.1V230.502L325.386 214.702V246.3ZM365.797 328.205L326.823 344.005V312.407L365.797 296.608V328.205ZM367.233 263.261L379.982 258.093L406.205 247.463V279.06L367.231 294.859L367.233 263.261ZM407.641 214.702L427.128 222.601L446.615 230.501V262.096L427.128 254.197L407.641 246.298V214.702ZM446.615 294.857L407.641 279.059V247.463L427.128 255.362L446.615 263.261V294.857ZM488.463 281.256C488.954 281.166 489.397 280.989 489.746 280.744L527.437 296.024V327.622L488.463 311.822V281.256ZM488.463 377.348V345.749L527.437 361.55V392.113C526.944 392.205 526.502 392.381 526.154 392.627L488.463 377.348ZM528.155 360.675L489.181 344.875L527.436 329.367V329.368L528.154 329.078L528.872 329.368V329.367L567.128 344.876L528.155 360.675ZM567.846 311.821L528.872 327.621V296.023L567.846 280.224V311.821ZM567.846 278.477L528.872 262.677V231.079L567.846 246.879V278.477ZM528.154 263.55L567.128 279.35L549.423 286.528L528.155 295.149L490.454 279.866C490.517 279.7 490.563 279.529 490.563 279.349C490.563 279.17 490.518 279 490.454 278.833L528.154 263.55ZM487.027 277.444C486.534 277.535 486.092 277.711 485.743 277.957L448.052 262.678V231.082L487.027 246.881V277.444ZM487.027 213.537L448.052 229.335V197.739L487.027 181.941V213.537ZM527.404 162.778C526.197 163.002 525.303 163.766 525.303 164.685C525.303 164.864 525.347 165.035 525.412 165.2L488.431 180.191V148.595L527.405 132.797L527.404 162.778ZM488.43 115.835L527.404 100.036V131.632L488.43 147.43V115.835ZM528.903 66.6993L567.879 50.9001V82.4976L528.903 98.2978V66.6993ZM527.404 98.8707L488.43 114.669V83.0734L527.404 67.2752V98.8707ZM446.615 131.632L408.924 146.91C408.576 146.664 408.133 146.488 407.641 146.396V115.834L446.615 100.035V131.632ZM448.021 98.3019V67.2762L486.995 83.0744V114.67L448.053 98.8838V98.2888L448.021 98.3019ZM407.641 181.941L446.615 197.739V229.335L427.128 221.436L407.641 213.537V181.941ZM406.205 214.702V246.297L383.935 255.325L367.233 262.096V232.116C368.439 231.892 369.334 231.128 369.334 230.209C369.334 230.03 369.288 229.858 369.225 229.693L406.205 214.702ZM365.797 197.737V228.302C365.304 228.394 364.862 228.569 364.514 228.815L326.823 213.537V182.972C327.314 182.881 327.756 182.704 328.105 182.459L365.797 197.737ZM365.797 164.392L328.105 179.671C327.758 179.425 327.315 179.249 326.823 179.158V148.596L327.541 148.304L327.539 148.303L365.797 132.796V164.392ZM365.797 98.8707L326.823 114.669V83.0734L365.797 67.2752V98.8707ZM326.823 115.835L365.797 100.036V131.632L326.823 147.43V115.835ZM406.268 50.9001V81.2472C405.062 81.471 404.167 82.2354 404.167 83.1541C404.167 83.2176 404.186 83.2771 404.194 83.3386L367.296 98.2978V66.6993L406.268 50.9001ZM326.886 18.1378L365.86 33.937V65.5345L326.886 49.7353V18.1378ZM286.411 68.3088C286.904 68.217 287.346 68.0416 287.694 67.7956L325.386 83.0734V114.668L286.411 98.8686V68.3088ZM325.386 115.835V147.432L286.411 131.632V100.036L325.386 115.835ZM285.693 132.505L324.668 148.305L285.696 164.104L284.975 163.811V163.813L246.719 148.305L285.693 132.505ZM204.874 164.105L165.9 148.305L204.156 132.797L204.874 132.505L205.592 132.797L243.848 148.305L204.874 164.105ZM244.565 115.251L205.591 131.05V99.4525L244.565 83.6533V115.251ZM246.001 17.5469L284.975 1.74862V33.3441L246.001 49.1423V17.5469ZM244.565 50.3071V81.9056L205.591 66.1063V34.5079L244.565 50.3071ZM203.437 33.6346L166.465 48.623C166.117 48.3769 165.673 48.2015 165.182 48.1098V18.1267L203.437 33.6346ZM163.746 51.9227V81.9056L124.771 66.1074V34.5109L161.753 49.5024C161.689 49.6678 161.645 49.8372 161.645 50.0167C161.645 50.9344 162.538 51.6988 163.746 51.9227ZM123.334 1.75771V33.3461L84.3606 49.1454V17.5549L123.334 1.75771ZM43.9519 33.929L82.9258 18.1308V49.7273L43.9519 65.5255V33.929ZM42.5156 66.6902V98.2878L3.5418 82.4885V51.9227C4.033 51.8309 4.47532 51.6564 4.82289 51.4103L42.5156 66.6902Z" fill="url(#paint0_linear_454_15)" fill-opacity="0.12"/>
<defs>
<linearGradient id="paint0_linear_454_15" x1="376.556" y1="-84.6741" x2="-56.9645" y2="806.338" gradientUnits="userSpaceOnUse">
<stop stop-color="#1E61A4"/>
<stop offset="0.1387" stop-color="#D5D6D7"/>
<stop offset="0.3812" stop-color="#E4E5E6"/>
<stop offset="0.5713" stop-color="#EAEBEB"/>
<stop offset="0.7471" stop-color="#EEEFEF"/>
<stop offset="0.9274" stop-color="#FAFAFB"/>
<stop offset="0.976" stop-color="white"/>
</linearGradient>
</defs>
</svg>
