<svg width="570" height="396" viewBox="0 0 570 396" fill="none" xmlns="http://www.w3.org/2000/svg">
<path d="M567.894 344.077V312.929L526.048 295.966V329.311L487.074 345.109V312.348L445.947 329.019L406.254 312.93V282.364C407.462 282.14 408.355 281.375 408.355 280.457C408.355 280.277 408.311 280.106 408.246 279.94L446.305 264.513L446.664 264.368V230.441L405.539 247.114L365.126 230.732L324.716 247.113L285.024 231.023V198.845L326.152 182.172L285.024 165.499V132.153L243.536 148.972L243.177 149.117V181.299L206.196 166.307C206.259 166.142 206.305 165.97 206.305 165.791C206.305 164.873 205.411 164.108 204.203 163.884V100.557L244.255 84.3209L244.614 84.1767V50.2487L203.126 67.0674L202.767 67.2127V99.978L163.077 116.069L124.098 100.267L163.436 84.3199L163.795 84.1757V50.2477L122.308 67.0664L121.948 67.2116V132.157L84.9667 117.166C85.0298 117 85.0758 116.83 85.0758 116.65C85.0758 115.732 84.1825 114.966 82.9746 114.743V83.5948L43.2826 67.5051L82.2565 51.7069L82.9746 51.9983V51.4154L83.6927 51.124L82.9746 50.8335V18.0693L44.5565 2.49592C44.6197 2.33053 44.6657 2.15907 44.6657 1.97957C44.6657 0.886416 43.4032 0 41.8464 0C40.2895 0 39.027 0.886416 39.027 1.97957C39.027 2.89725 39.9218 3.66267 41.1282 3.88655V34.4514L0 51.125L40.4101 67.5061L1.07718 83.4516L0.718121 83.5968V116.36L0 116.651L0.718121 116.943V149.707L40.3943 165.791L1.04558 181.741L0.686524 181.886V215.812L42.1753 198.994L42.5343 198.849V166.657L42.5645 166.669V133.324L80.2558 118.044C80.6034 118.29 81.0457 118.467 81.5383 118.557V149.703L121.23 165.792L81.8974 181.736L81.5383 181.882V214.658L43.8801 229.924C43.3688 229.562 42.6607 229.337 41.8779 229.337C40.3211 229.337 39.0586 230.223 39.0586 231.316C39.0586 232.234 39.9534 232.999 41.1598 233.223V296.513L1.04415 312.776L0.685088 312.922V346.849L0.749719 346.822V379.029L41.1598 395.409V395.992L41.8794 395.701L42.5961 395.991V395.41L82.6471 379.174L83.0062 379.029V345.102L43.8786 360.964C43.3688 360.602 42.6607 360.377 41.8779 360.377C41.0952 360.377 40.3871 360.602 39.8758 360.964L2.87105 345.961L41.1598 330.44V330.472L82.2866 313.801L123.415 330.472V297.117L163.434 280.894L163.793 280.75V249.605C165 249.381 165.895 248.615 165.895 247.698C165.895 246.604 164.632 245.718 163.075 245.718C161.518 245.718 160.256 246.604 160.256 247.698C160.256 247.877 160.3 248.048 160.365 248.214L122.306 263.642L121.947 263.787V295.954L83.0047 280.168V215.213L122.665 199.136L163.793 215.808V182.462L201.485 167.184C201.832 167.43 202.275 167.605 202.767 167.697V198.845L241.185 214.418C241.122 214.583 241.076 214.755 241.076 214.934C241.076 215.114 241.121 215.284 241.185 215.45L203.126 230.879L202.767 231.024V296.511L165.304 311.699C164.793 311.196 163.959 310.866 163.012 310.866C161.455 310.866 160.193 311.753 160.193 312.846C160.193 313.764 161.087 314.529 162.294 314.753V346.848L202.704 330.465V362.647L244.55 379.61V345.682L204.899 329.608L243.895 313.8L281.597 329.082C281.534 329.247 281.488 329.419 281.488 329.598C281.488 330.691 282.75 331.578 284.307 331.578C285.865 331.578 287.126 330.691 287.126 329.598C287.126 328.68 286.232 327.916 285.025 327.691V264.368L324.717 248.277L363.691 264.078L324.358 280.023L323.999 280.167V312.931L323.281 313.222L323.999 313.513V345.695L283.948 361.93L283.589 362.074V396L325.076 379.182L325.435 379.037V346.859L364.409 362.657V363.239L365.127 362.947L406.255 379.62V347.89C406.748 347.798 407.192 347.623 407.541 347.376L445.231 362.654V395.99L485.641 379.609V379.616L527.128 362.798L527.487 362.653V330.473L564.47 345.465C564.406 345.631 564.361 345.802 564.361 345.982C564.361 347.075 565.624 347.962 567.181 347.962C568.738 347.962 570 347.075 570 345.982C569.996 345.066 569.102 344.301 567.894 344.077ZM123.385 67.7945L162.359 51.9953V83.5928L123.385 99.392V67.7945ZM41.0966 198.264L2.12133 214.062V182.466L41.0966 166.668V198.264ZM81.5699 346.847V378.444L42.5961 394.243V364.261C43.8025 364.037 44.6973 363.273 44.6973 362.354C44.6973 362.175 44.6513 362.003 44.5881 361.838L81.5699 346.847ZM41.1598 364.261V394.242L2.18596 378.444V346.848L39.1663 361.839C39.1031 362.004 39.0572 362.175 39.0572 362.354C39.0586 363.273 39.9534 364.037 41.1598 364.261ZM485.639 345.683L446.666 361.482V329.892L485.639 314.093V345.683ZM404.818 344.077C404.325 344.169 403.883 344.345 403.535 344.591L366.563 329.602L404.818 314.094V344.077ZM365.844 296.547V264.95L402.826 279.941C402.763 280.107 402.717 280.277 402.717 280.457C402.717 281.374 403.61 282.139 404.816 282.363V312.347L365.844 296.547ZM404.818 278.551C404.325 278.643 403.883 278.818 403.534 279.065L366.562 264.078L404.818 248.569V278.551ZM365.126 297.422L404.1 313.221L386.395 320.398L365.127 329.019L326.153 313.22L343.858 306.043L365.126 297.422ZM365.844 330.476L402.826 345.468C402.763 345.633 402.717 345.804 402.717 345.983C402.717 346.163 402.761 346.334 402.826 346.5L365.844 361.491V330.476ZM445.229 263.785L407.538 279.063C407.19 278.817 406.747 278.642 406.254 278.55V247.988L445.229 232.189V263.785ZM244.614 213.028V183.044L283.589 198.844V230.441L246.607 215.45C246.67 215.284 246.716 215.114 246.716 214.934C246.716 214.018 245.821 213.252 244.614 213.028ZM244.614 216.842C245.106 216.75 245.55 216.575 245.898 216.329L282.868 231.315L244.614 246.821V216.842ZM284.307 197.97L245.332 182.171L264.447 174.422L284.306 166.372L323.279 182.171L284.307 197.97ZM244.614 149.7L283.589 133.9V165.498L244.614 181.298V149.7ZM204.203 67.7945L243.177 51.9953V83.5928L204.203 99.392V67.7945ZM202.767 132.739L190.018 137.907L163.795 148.537V116.94L202.769 101.141L202.767 132.739ZM162.359 181.298L142.872 173.399L123.385 165.499V133.904L142.872 141.803L162.359 149.702V181.298ZM123.385 101.143L162.359 116.941V148.537L142.872 140.638L123.385 132.739V101.143ZM81.5369 114.744C81.0457 114.834 80.6034 115.011 80.2543 115.256L42.563 99.9759V68.3784L81.5369 84.1777V114.744ZM81.5369 18.6522V50.2507L42.563 34.4504V3.88655C43.0557 3.79478 43.498 3.61931 43.8456 3.37325L81.5369 18.6522ZM41.8449 35.3247L80.8188 51.125L42.5645 66.6328V66.6318L41.8464 66.9222L41.1282 66.6318V66.6328L2.87248 51.124L41.8449 35.3247ZM2.15436 84.1787L41.1282 68.3794V99.9769L2.15436 115.776V84.1787ZM2.15436 117.523L41.1282 133.323V164.921L2.15436 149.121V117.523ZM41.8464 132.45L2.87248 116.65L20.577 109.472L41.8449 100.851L79.5463 116.134C79.4831 116.3 79.4371 116.471 79.4371 116.651C79.4371 116.83 79.4816 117 79.5463 117.167L41.8464 132.45ZM82.9732 118.556C83.4658 118.465 83.9081 118.289 84.2572 118.043L121.948 133.322V164.918L82.9732 149.119V118.556ZM82.9732 182.463L121.948 166.665V198.261L82.9732 214.059V182.463ZM42.5961 233.222C43.8025 232.998 44.6973 232.234 44.6973 231.315C44.6973 231.136 44.6528 230.965 44.5881 230.8L81.5685 215.809V247.405L42.5946 263.203L42.5961 233.222ZM81.5699 280.165L42.5961 295.964V264.368L81.5699 248.57V280.165ZM41.0966 329.301L2.12133 345.1V313.502L41.0966 297.702V329.301ZM42.5961 297.129L81.5699 281.331V312.927L42.5961 328.725V297.129ZM123.385 264.368L161.076 249.09C161.424 249.336 161.867 249.512 162.359 249.604V280.166L123.385 295.965V264.368ZM121.979 297.698V328.724L83.0047 312.926V281.33L121.947 297.116V297.711L121.979 297.698ZM162.359 214.059L123.385 198.261V166.665L142.872 174.564L162.359 182.463V214.059ZM163.795 181.298V149.703L186.065 140.675L202.767 133.904V163.884C201.561 164.108 200.666 164.872 200.666 165.791C200.666 165.97 200.712 166.142 200.775 166.307L163.795 181.298ZM204.203 198.263V167.698C204.696 167.606 205.138 167.431 205.486 167.185L243.177 182.463V213.028C242.686 213.119 242.244 213.296 241.895 213.541L204.203 198.263ZM204.203 231.608L241.895 216.329C242.242 216.575 242.685 216.751 243.177 216.842V247.404L242.459 247.696L242.461 247.697L204.203 263.204V231.608ZM204.203 297.129L243.177 281.331V312.927L204.203 328.725V297.129ZM243.177 280.165L204.203 295.964V264.368L243.177 248.57V280.165ZM163.732 345.1V314.753C164.938 314.529 165.833 313.765 165.833 312.846C165.833 312.782 165.814 312.723 165.806 312.661L202.704 297.702V329.301L163.732 345.1ZM243.114 377.862L204.14 362.063V330.465L243.114 346.265V377.862ZM283.589 327.691C283.096 327.783 282.654 327.958 282.306 328.204L244.614 312.927V281.332L283.589 297.131V327.691ZM244.614 280.165V248.568L283.589 264.368V295.964L244.614 280.165ZM284.307 263.495L245.332 247.695L284.304 231.896L285.025 232.189V232.187L323.281 247.695L284.307 263.495ZM365.126 231.895L404.1 247.695L365.844 263.203L365.126 263.495L364.408 263.203L326.152 247.695L365.126 231.895ZM325.435 280.749L364.409 264.95V296.547L325.435 312.347V280.749ZM323.999 378.453L285.025 394.251V362.656L323.999 346.858V378.453ZM325.435 345.693V314.094L364.409 329.894V361.492L325.435 345.693ZM366.563 362.365L403.535 347.377C403.883 347.623 404.327 347.798 404.818 347.89V377.873L366.563 362.365ZM406.254 344.077V314.094L445.229 329.893V361.489L408.247 346.498C408.311 346.332 408.355 346.163 408.355 345.983C408.355 345.066 407.462 344.301 406.254 344.077ZM446.666 394.242V362.654L485.639 346.855V378.445L446.666 394.242ZM526.048 362.071L487.074 377.869V346.273L526.048 330.474V362.071ZM527.484 329.31V297.712L566.458 313.512V344.077C565.967 344.169 565.525 344.344 565.177 344.59L527.484 329.31Z" fill="url(#paint0_linear_454_16)" fill-opacity="0.12"/>
<defs>
<linearGradient id="paint0_linear_454_16" x1="193.444" y1="480.674" x2="626.965" y2="-410.338" gradientUnits="userSpaceOnUse">
<stop stop-color="#1E61A4"/>
<stop offset="0.1387" stop-color="#D5D6D7"/>
<stop offset="0.3812" stop-color="#E4E5E6"/>
<stop offset="0.5713" stop-color="#EAEBEB"/>
<stop offset="0.7471" stop-color="#EEEFEF"/>
<stop offset="0.9274" stop-color="#FAFAFB"/>
<stop offset="0.976" stop-color="white"/>
</linearGradient>
</defs>
</svg>
