<svg width="64" height="67" viewBox="0 0 64 67" fill="none" xmlns="http://www.w3.org/2000/svg">
<path d="M48.3101 60.7787H40.2481V50.2501H11.907V60.7787H3.84497V39.3327C3.84497 36.202 4.40311 33.3206 5.51939 30.6885C6.63567 28.0564 8.18606 25.7931 10.1706 23.8988C12.155 22.0044 14.5013 20.5288 17.2093 19.472C19.9173 18.4152 22.8734 17.8867 26.0775 17.8867H44.2481C44.8062 17.8867 45.3333 17.9864 45.8295 18.1858C46.3256 18.3852 46.7597 18.6644 47.1318 19.0233C47.5039 19.3823 47.7933 19.801 48 20.2796C48.2067 20.7581 48.3101 21.2666 48.3101 21.805V60.7787ZM11.907 42.4733H40.2481V25.6635H26.0775C25.8295 25.6635 25.3023 25.7034 24.4961 25.7831C23.7106 25.843 22.7907 26.0125 21.7364 26.2916C20.7029 26.5708 19.6072 26.9995 18.4496 27.5778C17.292 28.156 16.2274 28.9537 15.2558 29.9706C14.2843 30.9876 13.4781 32.2638 12.8372 33.7992C12.2171 35.3147 11.907 37.1592 11.907 39.3327V42.4733Z" fill="white"/>
<path d="M56.6028 51.7544C57.1739 51.7544 57.6993 51.8511 58.179 52.0444C58.6588 52.234 59.073 52.4967 59.4218 52.8331C59.7661 53.1696 60.0365 53.5692 60.233 54.0319C60.4289 54.4947 60.5272 54.9972 60.5272 55.5399V59.9691C60.5272 60.0868 60.5053 60.1959 60.4617 60.2969C60.418 60.3979 60.3595 60.4864 60.2851 60.562C60.2067 60.6334 60.1149 60.6903 60.0102 60.7324C59.906 60.7745 59.7924 60.7956 59.6704 60.7956H52.0048C51.8867 60.7956 51.7755 60.7745 51.6709 60.7324C51.5662 60.6903 51.4749 60.6334 51.3965 60.562C51.3181 60.4864 51.2566 60.3979 51.2134 60.2969C51.1698 60.1959 51.1479 60.0868 51.1479 59.9691V55.5399C51.1479 54.9972 51.2457 54.4947 51.4422 54.0319C51.6381 53.5692 51.911 53.1696 52.2598 52.8331C52.6041 52.4967 53.0183 52.234 53.5026 52.0444C53.9823 51.8511 54.5052 51.7544 55.0723 51.7544H56.6028ZM55.0723 53.3945C54.7409 53.3945 54.4377 53.4471 54.1629 53.5524C53.8885 53.6534 53.6549 53.7984 53.4634 53.9879C53.2669 54.1769 53.1166 54.4043 53.0119 54.6689C52.9027 54.9297 52.8482 55.2202 52.8482 55.5399V59.1551H58.8265V55.5399C58.8265 55.2202 58.7744 54.9297 58.6697 54.6689C58.5605 54.4043 58.4102 54.1769 58.2182 53.9879C58.0222 53.7984 57.7886 53.6534 57.5187 53.5524C57.2438 53.4471 56.9387 53.3945 56.6028 53.3945H55.0723ZM56.6941 42.9651V48.145H54.9805V42.9651H56.6941ZM60.5272 42.2269V48.145C60.5272 48.3724 60.486 48.6203 60.4031 48.8897C60.3203 49.1586 60.1848 49.4089 59.9973 49.6406C59.8053 49.8674 59.5592 50.0588 59.2581 50.2144C58.953 50.3661 58.5804 50.4417 58.1398 50.4417H52.0048C51.8867 50.4417 51.7755 50.4206 51.6709 50.3785C51.5662 50.3364 51.4749 50.2795 51.3965 50.2082C51.3181 50.1325 51.2566 50.044 51.2134 49.943C51.1698 49.8421 51.1479 49.7329 51.1479 49.6152V42.2269H52.8482V48.8012H58.1398C58.3621 48.8012 58.5323 48.7442 58.6498 48.6308C58.7679 48.5174 58.8265 48.3513 58.8265 48.1326V42.2269H60.5272ZM57.7672 32.239C58.1026 32.239 58.4057 32.2811 58.6761 32.3652C58.9421 32.4452 59.1777 32.5524 59.3826 32.687C59.5875 32.8216 59.7621 32.9793 59.906 33.1602C60.0499 33.3411 60.1675 33.5283 60.2588 33.7218C60.3506 33.9152 60.418 34.1129 60.4617 34.3148C60.5053 34.5125 60.5272 34.6997 60.5272 34.8764V41.2046H58.8265V34.8764C58.8265 34.5609 58.7307 34.3169 58.5387 34.1445C58.3467 33.9678 58.0897 33.8795 57.7672 33.8795C57.61 33.8795 57.4661 33.9026 57.3351 33.9489C57.2046 33.9952 57.091 34.0624 56.9953 34.1508C56.8995 34.2349 56.8251 34.3401 56.773 34.4663C56.7204 34.5882 56.6941 34.7249 56.6941 34.8764V38.6493C56.6941 38.9143 56.6465 39.2003 56.5502 39.5073C56.45 39.8144 56.2908 40.1004 56.073 40.3654C55.8552 40.6262 55.5694 40.845 55.2162 41.0216C54.8629 41.1941 54.4313 41.2803 53.9213 41.2803C53.4108 41.2803 52.9816 41.1941 52.6324 41.0216C52.2791 40.845 51.9938 40.6262 51.7755 40.3654C51.5533 40.1004 51.394 39.8144 51.2983 39.5073C51.1981 39.2003 51.1479 38.9143 51.1479 38.6493V33.0656H52.8482V38.6493C52.8482 38.9606 52.9464 39.2045 53.1429 39.3812C53.3388 39.5536 53.5983 39.6399 53.9213 39.6399C54.2482 39.6399 54.5077 39.5536 54.6992 39.3812C54.8867 39.2045 54.9805 38.9606 54.9805 38.6493V34.8764V34.8637C54.985 34.6871 55.0113 34.4999 55.0594 34.3022C55.1026 34.1045 55.1725 33.9089 55.2683 33.7154C55.3645 33.5177 55.4866 33.3306 55.6349 33.1539C55.7788 32.9772 55.9529 32.8216 56.1578 32.687C56.3627 32.5482 56.5984 32.4388 56.8643 32.3589C57.1302 32.279 57.4314 32.239 57.7672 32.239ZM60.5272 22.2575V23.8979H58.2247V29.6646H60.5272V31.305H55.8373C55.1527 31.305 54.5226 31.1915 53.9471 30.9643C53.3716 30.7372 52.8769 30.4217 52.4627 30.0179C52.0484 29.6141 51.7254 29.1368 51.4942 28.5857C51.2635 28.0347 51.1479 27.4332 51.1479 26.7813V23.084C51.1479 22.9705 51.1698 22.8632 51.2134 22.7623C51.2566 22.6613 51.3181 22.573 51.3965 22.4972C51.4749 22.4215 51.5662 22.3627 51.6709 22.3206C51.7755 22.2785 51.8867 22.2575 52.0048 22.2575H60.5272ZM56.5244 29.6646V23.8979H52.8482V26.7813C52.8482 26.8318 52.8571 26.939 52.8745 27.1031C52.8879 27.2629 52.9246 27.4501 52.9856 27.6646C53.0466 27.8749 53.1404 28.0978 53.2669 28.3334C53.3934 28.5689 53.568 28.7855 53.7903 28.9832C54.0126 29.1809 54.2919 29.3449 54.6273 29.4753C54.9587 29.6015 55.362 29.6646 55.8373 29.6646H56.5244ZM60.5272 18.9512V20.5916H51.1479V18.9512H60.5272Z" fill="white"/>
</svg>
